<svg xmlns="http://www.w3.org/2000/svg" width="1200" height="630" viewBox="0 0 1200 630">
  <defs>
    <linearGradient id="bg" x1="0" y1="0" x2="1" y2="1">
      <stop offset="0%" stop-color="#DD1F29"/>
      <stop offset="100%" stop-color="#B5141D"/>
    </linearGradient>
  </defs>
  <rect width="1200" height="630" fill="url(#bg)"/>
  <g opacity=".12" stroke="#fff">
    <path d="M0 120H1200"/>
    <path d="M0 240H1200"/>
    <path d="M0 360H1200"/>
    <path d="M0 480H1200"/>
    <path d="M180 0V630"/>
    <path d="M360 0V630"/>
    <path d="M540 0V630"/>
    <path d="M720 0V630"/>
    <path d="M900 0V630"/>
    <path d="M1080 0V630"/>
  </g>
  <rect x="70" y="72" width="1060" height="486" rx="28" fill="#fff" opacity=".95"/>
  <text x="120" y="180" font-family="Arial, sans-serif" font-size="34" fill="#DD1F29" letter-spacing="3">TRANSIT RELIABILITY MONITOR</text>
  <text x="120" y="280" font-family="Arial, sans-serif" font-size="76" font-weight="700" fill="#1D1D1F">Caltrain Status</text>
  <text x="120" y="352" font-family="Arial, sans-serif" font-size="34" fill="#4E4E56">Uptime tracking and incident history for Bay Area Caltrain service</text>
  <g transform="translate(120 412)">
    <rect width="246" height="88" rx="44" fill="#EAF9F2"/>
    <text x="36" y="56" font-family="Arial, sans-serif" font-size="34" font-weight="700" fill="#0B6F53">Operational</text>
  </g>
  <g transform="translate(892 110)">
    <text x="75" y="85" text-anchor="middle" dominant-baseline="middle" font-size="78">🚂</text>
  </g>
</svg>
